<?xml version="1.0" standalone="no"?>
<!DOCTYPE svg PUBLIC "-//W3C//DTD SVG 20010904//EN"
 "http://www.w3.org/TR/2001/REC-SVG-20010904/DTD/svg10.dtd">
<svg version="1.0" xmlns="http://www.w3.org/2000/svg"
 width="1200.000000pt" height="1200.000000pt" viewBox="0 0 1200.000000 1200.000000"
 preserveAspectRatio="xMidYMid meet">

<g transform="translate(0.000000,1200.000000) scale(0.100000,-0.100000)"
fill="#000000" stroke="none">
<path d="M5113 9593 c-18 -7 -19 -613 -1 -631 8 -8 54 -12 143 -12 l131 0 -1
-247 0 -248 -129 -3 c-75 -1 -135 -7 -143 -14 -10 -8 -13 -76 -13 -318 0 -272
2 -309 16 -314 9 -3 150 -6 314 -6 234 0 300 3 308 13 7 8 13 68 14 143 l3
129 248 0 247 0 0 -130 c0 -89 4 -135 12 -143 9 -9 91 -12 309 -12 164 0 304
3 313 6 14 5 16 42 16 314 0 242 -3 310 -13 318 -8 7 -68 13 -143 14 l-129 3
0 248 0 247 130 0 c89 0 135 4 143 12 9 9 12 94 12 319 0 271 -2 308 -16 313
-9 3 -150 6 -314 6 -234 0 -300 -3 -308 -13 -7 -8 -13 -68 -14 -143 l-3 -129
-247 0 -248 0 0 130 c0 89 -4 135 -12 143 -9 9 -91 12 -312 11 -166 0 -307 -3
-313 -6z m1137 -486 c0 -90 4 -137 12 -145 8 -8 55 -12 145 -12 l133 0 0 -250
0 -250 -133 0 c-90 0 -137 -4 -145 -12 -8 -8 -12 -55 -12 -145 l0 -133 -250 0
-250 0 0 133 c0 90 -4 137 -12 145 -8 8 -55 12 -145 12 l-133 0 0 250 0 250
133 0 c90 0 137 4 145 12 8 8 12 55 12 145 l0 133 250 0 250 0 0 -133z m-985
-827 c-49 -49 -90 -90 -91 -90 -1 0 -1 20 0 45 1 38 8 51 46 90 39 40 49 45
89 45 l46 0 -90 -90z m90 -90 c-99 -99 -180 -180 -181 -180 -1 0 -1 20 0 45 2
44 5 49 136 180 133 133 135 135 180 135 l45 0 -180 -180z m315 157 c0 -16
-65 -87 -227 -248 -203 -201 -260 -248 -264 -217 -1 4 -2 14 -4 21 -1 6 100
114 224 240 162 162 232 227 248 227 17 0 23 -6 23 -23z m-135 -337 c-134
-134 -136 -136 -181 -136 l-46 -1 179 179 178 178 3 -41 c3 -42 3 -43 -133
-179z m91 -89 c-41 -42 -51 -47 -92 -47 l-45 -1 88 89 88 89 3 -42 c3 -38 -1
-46 -42 -88z"/>
<path d="M6549 6069 c0 -8 -1 -219 -2 -469 l0 -455 111 -3 112 -3 0 181 0 181
31 -3 c29 -3 38 -15 133 -180 l101 -178 123 0 c68 0 122 4 122 9 0 5 -50 89
-111 186 -61 97 -113 183 -115 190 -4 9 9 21 33 33 115 60 168 192 129 326
-24 81 -79 134 -171 165 -63 22 -92 25 -282 29 -175 3 -213 2 -214 -9z m355
-159 c62 -14 90 -49 90 -114 1 -96 -45 -136 -156 -136 l-68 0 0 130 0 130 48
0 c26 0 65 -5 86 -10z"/>
<path d="M3930 5605 l0 -465 110 0 110 0 0 465 0 465 -110 0 -110 0 0 -465z"/>
<path d="M4288 5851 l-128 -219 125 -238 c68 -131 128 -241 133 -246 5 -5 63
-7 130 -6 l121 3 -80 140 c-44 77 -110 189 -145 250 l-65 110 17 30 c10 16 54
86 99 155 112 173 145 226 145 233 0 4 -51 7 -112 7 l-113 0 -127 -219z"/>
<path d="M4985 6058 c-2 -7 -67 -217 -143 -465 l-139 -453 118 0 c115 0 119 1
124 23 3 12 14 56 23 97 l17 75 137 3 136 3 22 -93 c12 -51 26 -97 30 -101 4
-4 58 -6 122 -5 l115 3 -142 460 -141 460 -137 3 c-105 2 -138 0 -142 -10z
m230 -535 c5 -23 4 -23 -90 -23 -79 0 -95 3 -95 16 0 14 55 241 82 339 11 40
12 38 54 -135 24 -96 46 -185 49 -197z"/>
<path d="M5690 5990 l0 -80 95 0 95 0 0 -305 0 -305 -95 0 -95 0 0 -80 0 -80
305 0 305 0 0 80 0 80 -95 0 -95 0 0 305 0 305 95 0 95 0 0 80 0 80 -305 0
-305 0 0 -80z"/>
<path d="M7440 5991 l0 -80 98 2 97 2 3 -307 2 -308 -100 0 -100 0 0 -80 0
-80 305 0 305 0 0 80 0 80 -100 0 -100 0 2 308 3 307 98 3 97 3 0 74 0 75
-305 0 -305 0 0 -79z"/>
</g>
</svg>
