<?xml version="1.0" standalone="no"?>
<!DOCTYPE svg PUBLIC "-//W3C//DTD SVG 20010904//EN"
 "http://www.w3.org/TR/2001/REC-SVG-20010904/DTD/svg10.dtd">
<svg version="1.0" xmlns="http://www.w3.org/2000/svg"
 width="1200.000000pt" height="1200.000000pt" viewBox="0 0 1200.000000 1200.000000"
 preserveAspectRatio="xMidYMid meet">

<g transform="translate(0.000000,1200.000000) scale(0.100000,-0.100000)"
fill="#000000" stroke="none">
<path d="M5113 9593 c-19 -7 -19 -616 0 -631 8 -7 68 -13 143 -14 l129 -3 0
-247 0 -248 -131 0 c-99 0 -134 -3 -143 -14 -8 -9 -11 -103 -9 -322 l3 -309
309 -3 c216 -1 313 1 322 9 10 8 14 47 16 142 l3 132 248 0 247 0 0 -130 c0
-89 4 -135 12 -143 9 -9 91 -12 309 -12 164 0 304 3 313 6 14 5 16 42 16 314
0 242 -3 310 -13 318 -8 7 -68 13 -143 14 l-129 3 0 248 0 247 130 0 c89 0
135 4 143 12 9 9 12 94 12 319 0 271 -2 308 -16 313 -9 3 -149 6 -313 6 -218
0 -300 -3 -309 -12 -8 -8 -12 -54 -12 -143 l0 -130 -250 0 -250 0 0 130 c0 89
-4 135 -12 143 -9 9 -91 12 -312 11 -166 0 -307 -3 -313 -6z m1137 -486 c0
-90 4 -137 12 -145 8 -8 55 -12 145 -12 l133 0 0 -250 0 -250 -133 0 c-90 0
-137 -4 -145 -12 -8 -8 -12 -55 -12 -145 l0 -133 -250 0 -250 0 0 133 c0 90
-4 137 -12 145 -8 8 -55 12 -145 12 l-133 0 0 250 0 250 133 0 c90 0 137 4
145 12 8 8 12 55 12 145 l0 133 250 0 250 0 0 -133z m-980 -822 c-47 -47 -87
-85 -91 -85 -4 0 -6 18 -5 40 2 33 10 48 46 85 39 40 49 45 89 45 l46 0 -85
-85z m90 -90 c-96 -96 -178 -175 -181 -175 -4 0 -6 18 -5 40 2 38 11 50 136
175 133 133 135 135 180 135 l45 0 -175 -175z m310 152 c0 -16 -64 -86 -223
-245 -198 -198 -264 -252 -268 -221 -1 5 -2 15 -4 22 -1 6 100 114 224 240
162 162 232 227 248 227 17 0 23 -6 23 -23z m-134 -336 c-135 -135 -137 -137
-181 -137 l-45 0 177 178 178 178 3 -41 c3 -42 3 -43 -132 -178z m90 -90 c-40
-40 -51 -46 -91 -46 l-46 -1 88 88 88 89 3 -42 c3 -39 -1 -46 -42 -88z"/>
<path d="M6549 6071 c0 -6 -1 -211 -1 -456 0 -245 1 -452 1 -460 1 -12 20 -15
111 -15 l110 0 0 181 0 180 31 -3 c30 -3 38 -14 133 -180 l101 -178 123 0 c68
0 122 4 122 9 0 5 -50 89 -111 186 -61 97 -113 183 -115 190 -4 9 9 21 33 33
115 60 168 192 129 326 -24 82 -82 137 -173 167 -59 19 -96 23 -280 27 -152 3
-213 1 -214 -7z m355 -161 c62 -14 90 -49 90 -114 1 -96 -45 -136 -156 -136
l-68 0 0 130 0 130 48 0 c26 0 65 -5 86 -10z"/>
<path d="M3930 5605 l0 -465 110 0 110 0 0 465 0 465 -110 0 -110 0 0 -465z"/>
<path d="M4290 5858 c-68 -117 -125 -216 -127 -221 -3 -4 53 -118 124 -252
l128 -245 128 0 128 0 -12 23 c-19 35 -127 225 -174 302 -23 39 -56 95 -73
126 l-32 56 126 198 c69 109 128 205 131 212 4 10 -19 13 -109 13 l-115 0
-123 -212z"/>
<path d="M4985 6058 c-2 -7 -67 -217 -143 -465 l-139 -453 118 0 c115 0 119 1
124 23 3 12 14 56 23 97 l17 75 137 3 136 3 22 -93 c12 -51 26 -97 30 -101 4
-4 58 -6 122 -5 l115 3 -142 460 -141 460 -137 3 c-105 2 -138 0 -142 -10z
m230 -535 c5 -23 4 -23 -90 -23 -71 0 -95 3 -95 13 0 13 61 267 82 342 11 40
12 39 54 -135 24 -96 46 -185 49 -197z"/>
<path d="M5690 5990 l0 -80 95 0 95 0 0 -305 0 -305 -95 0 -95 0 0 -80 0 -80
305 0 305 0 0 80 0 80 -95 0 -95 0 0 305 0 305 95 0 95 0 0 80 0 80 -305 0
-305 0 0 -80z"/>
<path d="M7440 5990 l0 -80 95 0 95 0 0 -305 0 -305 -95 0 -95 0 0 -80 0 -80
305 0 305 0 0 80 0 80 -95 0 -95 0 0 305 0 305 95 0 95 0 0 80 0 80 -305 0
-305 0 0 -80z"/>
</g>
</svg>
